<svg id="Calque_1" data-name="Calque 1" xmlns="http://www.w3.org/2000/svg" viewBox="0 0 358.42 333.91"><defs><style>.cls-1{fill:#89dc65;}.cls-2{fill:#e3f6d8;}.cls-3{fill:#bbc6c3;}</style></defs><title>logo_sm</title><path class="cls-1" d="M76.32,140.71q2.9-3.93,5.88-7.84c2.06-2.53,4.2-5,6.31-7.53s4.5-4.78,6.76-7.18,4.74-4.55,7.12-6.85a187.94,187.94,0,0,1,32-23.5,196.82,196.82,0,0,1,75.86-25.27A200.51,200.51,0,0,1,328.46,85.07a202.86,202.86,0,0,1,62.39,52A202.82,202.82,0,0,1,413,171.32a200.47,200.47,0,0,1,21.38,77.91,196.58,196.58,0,0,1-11.17,79.18,187.94,187.94,0,0,1-17.35,35.74c-1.83,2.75-3.56,5.55-5.46,8.24s-3.83,5.35-5.84,7.94-4.16,5.08-6.28,7.57-4.42,4.82-6.65,7.19c1.81-2.72,3.62-5.42,5.46-8.1s3.38-5.54,5.07-8.29,3.15-5.65,4.73-8.45,2.86-5.78,4.3-8.65a208.2,208.2,0,0,0,13-36,202.51,202.51,0,0,0,5.15-75L418,241.31c-.6-3.07-1.16-6.14-1.78-9.2S414.77,226,414,223s-1.69-6-2.62-9a196.65,196.65,0,0,0-14.56-34.26A196.55,196.55,0,0,0,350,122.64a196.14,196.14,0,0,0-64.64-35.77A197.3,197.3,0,0,0,249,78.72c-3.09-.38-6.2-.62-9.3-1s-6.23-.31-9.34-.51-6.25-.06-9.37-.09l-9.38.36a202.23,202.23,0,0,0-72.86,18.59,209.7,209.7,0,0,0-33.06,19.3c-2.56,1.93-5.2,3.79-7.72,5.8s-5,4.07-7.46,6.17-4.85,4.29-7.24,6.49S78.67,138.44,76.32,140.71Z" transform="translate(-76.32 -61.18)"/><path class="cls-2" d="M104.18,168.55a146.63,146.63,0,0,1,46.13-43.23,157.12,157.12,0,0,1,61.1-20.91,161.1,161.1,0,0,1,65.18,5.35,163.3,163.3,0,0,1,30.58,12.54,163,163,0,0,1,50.57,42.12,163.88,163.88,0,0,1,17.85,27.82,160.93,160.93,0,0,1,17,63.15,157.24,157.24,0,0,1-9.55,63.88,146.7,146.7,0,0,1-34.22,53.17A185.76,185.76,0,0,0,364,345.33a167.35,167.35,0,0,0,10-28.87,162.9,162.9,0,0,0,3.52-59.7l-1.11-7.37L375,242.1c-.62-2.4-1.15-4.81-1.78-7.2s-1.36-4.75-2.11-7.1a157.38,157.38,0,0,0-11.66-27.1,156.78,156.78,0,0,0-88.27-73.59,159.26,159.26,0,0,0-28.76-6.58c-2.45-.32-4.91-.53-7.37-.8s-4.93-.27-7.41-.45l-7.43-.12-7.44.23a163,163,0,0,0-58.11,14.24,167.68,167.68,0,0,0-26.58,15.07A185.55,185.55,0,0,0,104.18,168.55Z" transform="translate(-76.32 -61.18)"/><path class="cls-3" d="M145.21,238.08a.88.88,0,0,1,0,.71.59.59,0,0,1-.6.34h-3.9a1.71,1.71,0,0,1-1.64-1q-3.37-7-5.62-11.49t-3.52-7.08c-1.05-2-1.85-3.62-2.4-4.72a19.58,19.58,0,0,1-3.18.45c-1,0-2.21.1-3.7.15h-6.29v22.69a.93.93,0,0,1-1,1h-3.37a.93.93,0,0,1-1-1V186c0-.55,0-1,0-1.28a.89.89,0,0,1,.93-.93c.3,0,.73,0,1.28,0h14.15a21.15,21.15,0,0,1,7.37,1.16,13.9,13.9,0,0,1,5.17,3.26,13.12,13.12,0,0,1,3.07,5.09,20.87,20.87,0,0,1,1,6.66,11.76,11.76,0,0,1-.78,4.27,14.86,14.86,0,0,1-2.14,3.75,18.25,18.25,0,0,1-3.11,3.1,19.14,19.14,0,0,1-3.63,2.29Zm-8.91-38.19a17.4,17.4,0,0,0-.72-5.35,7.49,7.49,0,0,0-2.39-3.59,10.32,10.32,0,0,0-4.38-2,31.78,31.78,0,0,0-6.74-.6h-7.71v22.32h7.86a20.21,20.21,0,0,0,5.65-.75,13.73,13.73,0,0,0,4.46-2.17,10.44,10.44,0,0,0,2.92-3.41A9.38,9.38,0,0,0,136.3,199.89Z" transform="translate(-76.32 -61.18)"/><path class="cls-3" d="M157,220.33q-.15,7.42,3.59,11.46a12.82,12.82,0,0,0,9.89,4,26.42,26.42,0,0,0,5.61-.56,16.89,16.89,0,0,0,4.87-1.83c.65-.3,1-.12,1,.52v3.37a1.16,1.16,0,0,1-.82,1,26.91,26.91,0,0,1-5.17,1.46,32.37,32.37,0,0,1-5.84.49q-9.28,0-14-5.32t-4.68-16.17q0-9.51,4.71-15.35a15.61,15.61,0,0,1,12.51-5.92,16.33,16.33,0,0,1,7.3,1.5,14.23,14.23,0,0,1,5.2,4.49q3.83,5.33,3.82,14.23c0,.65,0,1.15,0,1.5a1.13,1.13,0,0,1-.26.75,1.23,1.23,0,0,1-.78.26c-.38,0-.92,0-1.61,0Zm22.46-4.26a22.55,22.55,0,0,0-.6-5.51,14.18,14.18,0,0,0-1.87-4.3,9,9,0,0,0-8-4.42,10.46,10.46,0,0,0-8.76,4.49A20.08,20.08,0,0,0,158,211a17.18,17.18,0,0,0-1,5.09Zm-14.68-22.92a1.2,1.2,0,0,1,.3-.74l5-7.12a7.58,7.58,0,0,1,.86-.86,1.67,1.67,0,0,1,1-.26H177c.55,0,.83.17.83.52a.86.86,0,0,1-.3.6l-6.22,7.27a10.59,10.59,0,0,1-.82.86,1.36,1.36,0,0,1-.9.26h-4C165.05,193.68,164.82,193.5,164.82,193.15Z" transform="translate(-76.32 -61.18)"/><path class="cls-3" d="M193.8,234.19a24.64,24.64,0,0,0,9.44,1.87,10.75,10.75,0,0,0,6.66-2,6.37,6.37,0,0,0,2.62-5.36,6,6,0,0,0-1.46-3.78,12.28,12.28,0,0,0-3.56-3c-1.54-.85-3.13-1.66-4.75-2.44s-3.18-1.58-4.68-2.43a10,10,0,0,1-4-3.71,9,9,0,0,1-1.27-4.6,10.74,10.74,0,0,1,1-4.87,10.28,10.28,0,0,1,2.84-3.52,12,12,0,0,1,4.2-2.09,18.63,18.63,0,0,1,5.09-.68,35.46,35.46,0,0,1,4.94.3,31.34,31.34,0,0,1,4.19.9,2.29,2.29,0,0,1,.79.45.87.87,0,0,1,.26.82l-.22,2.25a.83.83,0,0,1-.45.75,1,1,0,0,1-.75,0,19.07,19.07,0,0,0-3.75-.94,33.65,33.65,0,0,0-4.49-.26q-8.68,0-8.68,6.89a4.24,4.24,0,0,0,1.16,2.84,12.27,12.27,0,0,0,3.93,2.7c1.59.8,3.17,1.56,4.71,2.28s3.22,1.59,5,2.59a10.15,10.15,0,0,1,3.86,3.89,11.11,11.11,0,0,1,1.53,5.69,10.18,10.18,0,0,1-4.42,8.76,14.64,14.64,0,0,1-4.64,2.14,20.66,20.66,0,0,1-5.39.71c-1.1,0-2.08,0-3-.08s-1.69-.12-2.47-.22-1.56-.23-2.36-.38-1.64-.35-2.54-.6a1.25,1.25,0,0,1-1-1.34l.3-2.77Q192.75,233.74,193.8,234.19Z" transform="translate(-76.32 -61.18)"/><path class="cls-3" d="M230.12,220.33A20,20,0,0,0,231,227a12.8,12.8,0,0,0,2.73,4.83,12.13,12.13,0,0,0,4.31,3,14.3,14.3,0,0,0,5.58,1,26.42,26.42,0,0,0,5.61-.56,16.89,16.89,0,0,0,4.87-1.83c.65-.3,1-.12,1,.52v3.37a1.16,1.16,0,0,1-.82,1,26.91,26.91,0,0,1-5.17,1.46,32.3,32.3,0,0,1-5.84.49q-9.21,0-13.93-5.36t-4.71-16.13q0-9.51,4.71-15.35a15.61,15.61,0,0,1,12.51-5.92,16.39,16.39,0,0,1,7.26,1.5,14.11,14.11,0,0,1,5.24,4.49q3.82,5.33,3.82,14.23c0,.65,0,1.15,0,1.5a1.13,1.13,0,0,1-.26.75,1.23,1.23,0,0,1-.78.26c-.38,0-.91,0-1.61,0Zm22.46-4.26a22.61,22.61,0,0,0-.6-5.47,14.09,14.09,0,0,0-1.87-4.34,8.9,8.9,0,0,0-8-4.42,10.46,10.46,0,0,0-8.76,4.49,20.08,20.08,0,0,0-2.25,4.65,17.18,17.18,0,0,0-1,5.09Z" transform="translate(-76.32 -61.18)"/><path class="cls-3" d="M270.1,204.91a.81.81,0,0,1-.71.11.46.46,0,0,1-.34-.48v-2.85a1.68,1.68,0,0,1,1.05-1.57,19.27,19.27,0,0,1,5.58-2,35.15,35.15,0,0,1,6.48-.56q7.48,0,10.93,3.56t3.44,10.74v18.8c0,1.5,0,2.83.08,4s.12,2.31.22,3.41a.93.93,0,0,1-1,1h-2.7a.93.93,0,0,1-1-1v-5.76a11.85,11.85,0,0,1-5.28,5.91,16,16,0,0,1-8.05,2.1q-7.56,0-11.08-4.42a10.28,10.28,0,0,1-1.8-3.48,13.5,13.5,0,0,1-.6-3.93,14.19,14.19,0,0,1,2.14-7.87,12.87,12.87,0,0,1,6.55-4.94q5.4-1.94,16.55-1.94h1V211.5c0-3.15-.71-5.54-2.13-7.19s-3.81-2.47-7.15-2.47a27.75,27.75,0,0,0-6.37.71A19.72,19.72,0,0,0,270.1,204.91ZM291.44,218H290a42.22,42.22,0,0,0-7.45.34,27,27,0,0,0-5.43,1.31,9.51,9.51,0,0,0-4.72,3.33,9,9,0,0,0-1.57,5.28,9.86,9.86,0,0,0,.6,3.48,5.16,5.16,0,0,0,1.87,2.51,9.32,9.32,0,0,0,6,1.8,11.09,11.09,0,0,0,4.83-1.05,11.47,11.47,0,0,0,3.86-3,13.53,13.53,0,0,0,2.54-4.83,22.25,22.25,0,0,0,.9-6.63Z" transform="translate(-76.32 -61.18)"/><path class="cls-3" d="M341.39,238.08a.93.93,0,0,1-1.05,1h-2.7a.92.92,0,0,1-1-1v-6.21a13.6,13.6,0,0,1-5.21,6.47,15.44,15.44,0,0,1-8.2,2q-14,0-14-15.65v-25a.93.93,0,0,1,1.05-1h3a.93.93,0,0,1,1,1v23.66q0,12.73,9.74,12.73a10.51,10.51,0,0,0,5.12-1.24,11.51,11.51,0,0,0,3.86-3.36,15.78,15.78,0,0,0,2.4-5,19.74,19.74,0,0,0,.75-6V199.67a.92.92,0,0,1,1-1h3a.93.93,0,0,1,1.05,1v30.1c0,1.65,0,3.12,0,4.42S341.34,236.78,341.39,238.08Z" transform="translate(-76.32 -61.18)"/><path class="cls-3" d="M175.41,359.56a1.66,1.66,0,0,1,0,1.31,1.09,1.09,0,0,1-1.1.62h-7.17a3.21,3.21,0,0,1-3-1.93q-6.2-12.94-10.32-21.14t-6.48-13q-2.88-5.64-4.4-8.68a36.19,36.19,0,0,1-5.85.83c-1.79.09-4.07.19-6.82.28H118.67v41.72a1.71,1.71,0,0,1-1.93,1.93h-6.19a1.71,1.71,0,0,1-1.93-1.93V263.72c0-1,0-1.79.07-2.34a1.91,1.91,0,0,1,.48-1.24,1.88,1.88,0,0,1,1.24-.48c.55-.05,1.33-.07,2.34-.07h26a38.84,38.84,0,0,1,13.56,2.13,25.73,25.73,0,0,1,9.5,6,24.16,24.16,0,0,1,5.65,9.37,38.09,38.09,0,0,1,1.86,12.25,21.37,21.37,0,0,1-1.45,7.85,27.08,27.08,0,0,1-3.92,6.89,34,34,0,0,1-5.72,5.71,35.73,35.73,0,0,1-6.68,4.2ZM159,289.33a32.39,32.39,0,0,0-1.31-9.84,13.84,13.84,0,0,0-4.4-6.61,19,19,0,0,0-8.06-3.65,58.11,58.11,0,0,0-12.39-1.1H118.67v41h14.46a37.22,37.22,0,0,0,10.4-1.38,24.44,24.44,0,0,0,8.19-4,18.7,18.7,0,0,0,5.37-6.27A17.19,17.19,0,0,0,159,289.33Z" transform="translate(-76.32 -61.18)"/><path class="cls-3" d="M266.56,359.56a1.7,1.7,0,0,1-1.92,1.93h-6.2a1.71,1.71,0,0,1-1.93-1.93V313.15H204.32v46.41a1.71,1.71,0,0,1-1.93,1.93H196.2a1.71,1.71,0,0,1-1.93-1.93V261.24a1.71,1.71,0,0,1,1.93-1.93h6.19a1.71,1.71,0,0,1,1.93,1.93v43.24h52.19V261.24a1.71,1.71,0,0,1,1.93-1.93h6.2a1.7,1.7,0,0,1,1.92,1.93Z" transform="translate(-76.32 -61.18)"/><path class="cls-1" d="M341.35,300c0,1-.09,1.53-.27,1.66a3.76,3.76,0,0,1-1.71.21H316.86v22.5a3.28,3.28,0,0,1-.2,1.57,3.15,3.15,0,0,1-1.57.2H311a1.3,1.3,0,0,1-1.77-1.77v-22.5h-22.4a3.85,3.85,0,0,1-1.72-.21c-.17-.13-.26-.69-.26-1.66v-3.75c0-1,.09-1.53.26-1.67a3.85,3.85,0,0,1,1.72-.21h22.4V272.07c0-1,.09-1.53.26-1.67a3.82,3.82,0,0,1,1.72-.21h3.65a3.76,3.76,0,0,1,1.71.21c.18.14.26.7.26,1.67v22.29h22.51a3.76,3.76,0,0,1,1.71.21c.18.14.27.7.27,1.67Z" transform="translate(-76.32 -61.18)"/></svg>