<svg id="Calque_1" data-name="Calque 1" xmlns="http://www.w3.org/2000/svg" viewBox="0 0 804.25 309.44"><defs><style>.cls-1{fill:#89dc65;}.cls-2{fill:#bbc6c3;}.cls-3{fill:#e3f6d8;}</style></defs><title>logo</title><path class="cls-1" d="M811.35,272c0,1.07-.1,1.69-.29,1.84a4.13,4.13,0,0,1-1.9.23H784.3v24.87a1.44,1.44,0,0,1-2,2h-4.49a1.44,1.44,0,0,1-2-2V274.05H751.14a4.13,4.13,0,0,1-1.9-.23c-.2-.15-.29-.77-.29-1.84v-4.15c0-1.07.09-1.68.29-1.84a4.28,4.28,0,0,1,1.9-.23h24.75V241.12c0-1.07.1-1.68.29-1.84a4.28,4.28,0,0,1,1.9-.23h4a4.32,4.32,0,0,1,1.9.23c.19.16.29.77.29,1.84v24.64h24.86a4.28,4.28,0,0,1,1.9.23c.19.16.29.77.29,1.84Z" transform="translate(-88.26 -71.54)"/><path class="cls-2" d="M156,331.18a1.68,1.68,0,0,1,0,1.32,1.1,1.1,0,0,1-1.12.63H147.6a3.22,3.22,0,0,1-3.07-1.95q-6.28-13.12-10.48-21.43t-6.56-13.2q-2.92-5.73-4.47-8.8a36.22,36.22,0,0,1-5.93.84q-2.73.15-6.91.28H98.45v42.31a1.73,1.73,0,0,1-2,1.95H90.21a1.72,1.72,0,0,1-1.95-1.95V234c0-1,0-1.82.07-2.38a1.89,1.89,0,0,1,.48-1.25,2,2,0,0,1,1.26-.49c.56,0,1.35-.07,2.37-.07h26.39A39.44,39.44,0,0,1,132.59,232a26.1,26.1,0,0,1,9.63,6.08,24.52,24.52,0,0,1,5.73,9.49A38.89,38.89,0,0,1,149.83,260a22,22,0,0,1-1.46,8,27.64,27.64,0,0,1-4,7,34.17,34.17,0,0,1-5.8,5.79,36.19,36.19,0,0,1-6.77,4.26ZM139.36,260A32.71,32.71,0,0,0,138,250a14.07,14.07,0,0,0-4.46-6.7,19.35,19.35,0,0,0-8.17-3.7,59.53,59.53,0,0,0-12.57-1.12H98.45v41.61h14.66a37.8,37.8,0,0,0,10.54-1.39,25.16,25.16,0,0,0,8.31-4.05,19.27,19.27,0,0,0,5.44-6.35A17.45,17.45,0,0,0,139.36,260Z" transform="translate(-88.26 -71.54)"/><path class="cls-2" d="M178,298.09q-.28,13.82,6.7,21.36T203.17,327a49.82,49.82,0,0,0,10.47-1.05,32,32,0,0,0,9.08-3.42c1.21-.56,1.81-.23,1.81,1v6.28a2.17,2.17,0,0,1-1.53,2,51.51,51.51,0,0,1-9.64,2.72,61.81,61.81,0,0,1-10.89.91q-17.31,0-26-9.92t-8.73-30.16q0-17.73,8.8-28.62a29.09,29.09,0,0,1,23.32-11,30.51,30.51,0,0,1,13.61,2.79,26.48,26.48,0,0,1,9.71,8.38q7.11,9.92,7.12,26.53c0,1.21,0,2.14-.07,2.79a2.19,2.19,0,0,1-.49,1.4,2.29,2.29,0,0,1-1.47.49c-.7,0-1.7.07-3,.07Zm41.88-8a42.33,42.33,0,0,0-1.11-10.27,26.61,26.61,0,0,0-3.49-8,16.8,16.8,0,0,0-14.94-8.24q-10.06,0-16.34,8.38a37.37,37.37,0,0,0-4.19,8.65,32.09,32.09,0,0,0-1.81,9.5ZM192.56,247.4a2.22,2.22,0,0,1,.56-1.4l9.35-13.26a13.3,13.3,0,0,1,1.61-1.61,3.06,3.06,0,0,1,1.88-.48h9.22c1,0,1.53.32,1.53,1a1.57,1.57,0,0,1-.56,1.12l-11.58,13.54a19.92,19.92,0,0,1-1.54,1.61,2.46,2.46,0,0,1-1.68.49h-7.54C193,248.38,192.56,248.05,192.56,247.4Z" transform="translate(-88.26 -71.54)"/><path class="cls-2" d="M246.59,323.92a45.92,45.92,0,0,0,17.6,3.49q7.53,0,12.42-3.7a11.88,11.88,0,0,0,4.89-10,11.29,11.29,0,0,0-2.72-7.05,23,23,0,0,0-6.64-5.65q-4.32-2.37-8.86-4.54t-8.73-4.54a18.69,18.69,0,0,1-7.4-6.91,17,17,0,0,1-2.37-8.59,20.08,20.08,0,0,1,1.95-9.07,19,19,0,0,1,5.31-6.56,21.87,21.87,0,0,1,7.82-3.91,34.81,34.81,0,0,1,9.49-1.26,66.53,66.53,0,0,1,9.22.56,59.31,59.31,0,0,1,7.82,1.67,4.32,4.32,0,0,1,1.46.84,1.63,1.63,0,0,1,.49,1.54l-.42,4.19a1.52,1.52,0,0,1-.84,1.39,1.77,1.77,0,0,1-1.39,0,34.44,34.44,0,0,0-7-1.74,60.88,60.88,0,0,0-8.38-.49q-16.2,0-16.2,12.84a8,8,0,0,0,2.17,5.31,22.93,22.93,0,0,0,7.33,5q4.47,2.24,8.79,4.26t9.36,4.81a19.06,19.06,0,0,1,7.19,7.26,20.63,20.63,0,0,1,2.86,10.61,19,19,0,0,1-8.24,16.34,27.45,27.45,0,0,1-8.65,4,38.42,38.42,0,0,1-10.06,1.33c-2,0-3.88-.05-5.51-.14s-3.17-.24-4.61-.42-2.91-.42-4.4-.7-3.07-.65-4.74-1.12a2.33,2.33,0,0,1-1.82-2.51l.56-5.17C244.54,323.83,245.29,323.36,246.59,323.92Z" transform="translate(-88.26 -71.54)"/><path class="cls-2" d="M314.31,298.09a37.41,37.41,0,0,0,1.61,12.35,23.94,23.94,0,0,0,5.09,9,22.68,22.68,0,0,0,8,5.58,26.62,26.62,0,0,0,10.4,2,49.84,49.84,0,0,0,10.48-1.05,32,32,0,0,0,9.07-3.42c1.21-.56,1.82-.23,1.82,1v6.28a2.17,2.17,0,0,1-1.54,2,51.19,51.19,0,0,1-9.63,2.72,61.81,61.81,0,0,1-10.89.91q-17.17,0-26-10T304,295.29q0-17.73,8.8-28.62a29.08,29.08,0,0,1,23.31-11,30.63,30.63,0,0,1,13.55,2.79,26.26,26.26,0,0,1,9.77,8.38q7.13,9.92,7.12,26.53c0,1.21,0,2.14-.07,2.79a2.19,2.19,0,0,1-.49,1.4,2.26,2.26,0,0,1-1.46.49c-.7,0-1.7.07-3,.07Zm41.89-8a42,42,0,0,0-1.12-10.2,26.34,26.34,0,0,0-3.49-8.09,16.58,16.58,0,0,0-14.94-8.24q-10,0-16.33,8.38a37,37,0,0,0-4.19,8.65,32.11,32.11,0,0,0-1.82,9.5Z" transform="translate(-88.26 -71.54)"/><path class="cls-2" d="M388.87,269.32a1.53,1.53,0,0,1-1.32.21.87.87,0,0,1-.63-.91v-5.3a3.13,3.13,0,0,1,1.95-2.93,35.34,35.34,0,0,1,10.41-3.7,64.59,64.59,0,0,1,12.07-1.05q14,0,20.39,6.63t6.42,20v35q0,4.2.14,7.48t.42,6.35a1.72,1.72,0,0,1-2,1.95h-5a1.73,1.73,0,0,1-2-1.95V320.43a22,22,0,0,1-9.84,11,30,30,0,0,1-15,3.91q-14.1,0-20.66-8.24a19.25,19.25,0,0,1-3.36-6.49,25.43,25.43,0,0,1-1.11-7.33,26.35,26.35,0,0,1,4-14.67q4-6.13,12.21-9.21,10.06-3.63,30.86-3.63h1.82v-4.19q0-8.79-4-13.4t-13.34-4.61a51.37,51.37,0,0,0-11.86,1.32A36.69,36.69,0,0,0,388.87,269.32Zm39.8,24.44H426a75.54,75.54,0,0,0-13.89.63A49.6,49.6,0,0,0,402,296.83a17.79,17.79,0,0,0-8.8,6.21,16.58,16.58,0,0,0-2.93,9.85,18.36,18.36,0,0,0,1.12,6.49,9.63,9.63,0,0,0,3.49,4.68q4.19,3.35,11.17,3.35a20.59,20.59,0,0,0,9-2,21.16,21.16,0,0,0,7.19-5.58,25.48,25.48,0,0,0,4.75-9,41.43,41.43,0,0,0,1.68-12.36Z" transform="translate(-88.26 -71.54)"/><path class="cls-2" d="M521.8,331.18a1.72,1.72,0,0,1-1.95,1.95h-5a1.73,1.73,0,0,1-2-1.95V319.59q-3.63,8.37-9.7,12.08t-15.29,3.7q-26.12,0-26.11-29.19V259.55a1.73,1.73,0,0,1,1.95-2h5.59a1.73,1.73,0,0,1,1.95,2v44.12q0,23.74,18.16,23.74A19.74,19.74,0,0,0,499,325.1a21.53,21.53,0,0,0,7.19-6.28,29.2,29.2,0,0,0,4.47-9.28,37.06,37.06,0,0,0,1.4-11.17V259.55a1.73,1.73,0,0,1,2-2h5.59a1.73,1.73,0,0,1,1.95,2v56.13q0,4.6.07,8.24T521.8,331.18Z" transform="translate(-88.26 -71.54)"/><path class="cls-2" d="M642.12,333.22a1.67,1.67,0,0,1,0,1.35,1.13,1.13,0,0,1-1.13.64H633.6a3.28,3.28,0,0,1-3.12-2q-6.39-13.35-10.65-21.8T613.15,298q-3-5.82-4.54-8.95a37.53,37.53,0,0,1-6,.85c-1.85.1-4.19.19-7,.29H583.61v43a1.76,1.76,0,0,1-2,2h-6.39a1.76,1.76,0,0,1-2-2V234.37c0-1,0-1.84.07-2.41a2,2,0,0,1,.5-1.28,2,2,0,0,1,1.28-.5c.57,0,1.37-.07,2.41-.07h26.85a40.14,40.14,0,0,1,14,2.2,26.5,26.5,0,0,1,9.8,6.18,24.88,24.88,0,0,1,5.83,9.66,39.6,39.6,0,0,1,1.91,12.64,22,22,0,0,1-1.49,8.09,27.36,27.36,0,0,1-4,7.1,34.61,34.61,0,0,1-5.89,5.9,37.12,37.12,0,0,1-6.89,4.33Zm-16.9-72.43a33.43,33.43,0,0,0-1.35-10.16,14.25,14.25,0,0,0-4.54-6.81,19.6,19.6,0,0,0-8.31-3.77,60.8,60.8,0,0,0-12.78-1.13H583.61v42.32h14.91a38.24,38.24,0,0,0,10.72-1.42,25.52,25.52,0,0,0,8.45-4.12,19.4,19.4,0,0,0,5.54-6.46A17.77,17.77,0,0,0,625.22,260.79Z" transform="translate(-88.26 -71.54)"/><path class="cls-2" d="M736.14,333.22a1.76,1.76,0,0,1-2,2h-6.39a1.76,1.76,0,0,1-2-2V285.36H671.94v47.86a1.76,1.76,0,0,1-2,2h-6.39a1.76,1.76,0,0,1-2-2V231.82a1.76,1.76,0,0,1,2-2H670a1.75,1.75,0,0,1,2,2v44.59h53.83V231.82a1.76,1.76,0,0,1,2-2h6.39a1.76,1.76,0,0,1,2,2Z" transform="translate(-88.26 -71.54)"/><path class="cls-1" d="M534.91,163.43q2.43-4.05,5-8.09c1.76-2.63,3.59-5.22,5.4-7.85s3.9-5,5.86-7.53,4.16-4.83,6.25-7.26a182.07,182.07,0,0,1,28.75-25.59A190.55,190.55,0,0,1,657,75.83a194.09,194.09,0,0,1,116,11A195.93,195.93,0,0,1,838,131.24a197.25,197.25,0,0,1,24.44,31,194.36,194.36,0,0,1,27.72,73.2,190.65,190.65,0,0,1-3.56,77.4,182.52,182.52,0,0,1-13.48,36.05c-1.52,2.82-2.93,5.68-4.52,8.45s-3.2,5.5-4.91,8.19-3.55,5.27-5.36,7.86-3.83,5.06-5.76,7.55q2.24-4.19,4.52-8.31c1.42-2.81,2.76-5.65,4.14-8.46s2.52-5.73,3.79-8.59,2.23-5.83,3.36-8.73a201.51,201.51,0,0,0,9.27-35.9,196,196,0,0,0-1.87-72.82l-2.14-8.83c-.85-2.91-1.67-5.82-2.55-8.71s-1.92-5.74-2.94-8.58-2.17-5.64-3.33-8.42a191.09,191.09,0,0,0-17.17-31.72,190.17,190.17,0,0,0-116-79.46,192,192,0,0,0-35.78-4.55c-3-.08-6,0-9.06-.07s-6,.27-9.06.36-6,.52-9,.76l-9,1.21a196.11,196.11,0,0,0-68.59,24.57A201.52,201.52,0,0,0,561,136.36c-2.3,2.1-4.68,4.13-6.93,6.29s-4.45,4.38-6.63,6.64-4.29,4.58-6.39,6.92S537,161,534.91,163.43Z" transform="translate(-88.26 -71.54)"/><path class="cls-3" d="M563,190.4a142.25,142.25,0,0,1,40.56-45.9,152.3,152.3,0,0,1,57-25.74,156.18,156.18,0,0,1,94,8.53,157.81,157.81,0,0,1,52.62,36A159.1,159.1,0,0,1,827,188.52a155.84,155.84,0,0,1,22.17,59.36,152.13,152.13,0,0,1-3.39,62.48,142,142,0,0,1-28.16,54.4,180.75,180.75,0,0,0,12.19-27.53,162.53,162.53,0,0,0,7-28.75,158.15,158.15,0,0,0-2-57.91l-1.75-7-2.08-6.9c-.81-2.26-1.54-4.54-2.36-6.79s-1.75-4.46-2.69-6.66a153.39,153.39,0,0,0-13.71-25.07,151.93,151.93,0,0,0-91.85-62.94A154.07,154.07,0,0,0,692,131.48c-2.39-.08-4.78,0-7.18-.09s-4.78.19-7.19.24l-7.18.55-7.16.91a157.8,157.8,0,0,0-54.74,19,162.11,162.11,0,0,0-24.27,16.95A180,180,0,0,0,563,190.4Z" transform="translate(-88.26 -71.54)"/></svg>